<svg viewBox="0 0 21 21" xmlns="http://www.w3.org/2000/svg">
<path d="M1.325 12.8023C1.60599 13.1397 1.9576 13.4112 2.35501 13.5979C2.75243 13.7845 3.18596 13.8816 3.625 13.8823H8.185L7.625 15.3123C7.39207 15.9384 7.3145 16.6117 7.39894 17.2744C7.48338 17.9371 7.72731 18.5694 8.10981 19.1171C8.49232 19.6648 9.00197 20.1115 9.59506 20.419C10.1881 20.7264 10.847 20.8854 11.515 20.8823C11.7074 20.8819 11.8955 20.8261 12.0569 20.7214C12.2183 20.6168 12.3461 20.4678 12.425 20.2923L15.275 13.8823H17.625C18.4206 13.8823 19.1837 13.5663 19.7463 13.0036C20.3089 12.441 20.625 11.678 20.625 10.8823V3.88233C20.625 3.08668 20.3089 2.32361 19.7463 1.76101C19.1837 1.1984 18.4206 0.882326 17.625 0.882326H4.895C4.19319 0.882561 3.51367 1.12884 2.97468 1.5783C2.43568 2.02777 2.07133 2.65198 1.945 3.34233L0.674999 10.3423C0.596449 10.7749 0.613956 11.2195 0.72628 11.6446C0.838604 12.0698 1.043 12.465 1.325 12.8023ZM15.625 2.88233H17.625C17.8902 2.88233 18.1446 2.98768 18.3321 3.17522C18.5196 3.36275 18.625 3.61711 18.625 3.88233V10.8823C18.625 11.1475 18.5196 11.4019 18.3321 11.5894C18.1446 11.777 17.8902 11.8823 17.625 11.8823H15.625V2.88233ZM2.625 10.7023L3.895 3.70233C3.9376 3.46937 4.06149 3.25909 4.24461 3.10892C4.42774 2.95876 4.65821 2.87846 4.895 2.88233H13.625V12.6723L10.905 18.7923C10.625 18.7107 10.365 18.5719 10.1413 18.3847C9.91769 18.1976 9.73528 17.9661 9.6056 17.7048C9.47593 17.4436 9.40182 17.1583 9.38794 16.867C9.37407 16.5757 9.42074 16.2847 9.525 16.0123L10.055 14.5823C10.1679 14.2801 10.2061 13.955 10.1661 13.6348C10.1262 13.3146 10.0094 13.0088 9.82567 12.7436C9.64195 12.4783 9.39679 12.2615 9.11109 12.1115C8.8254 11.9615 8.50766 11.8829 8.185 11.8823H3.625C3.47809 11.8826 3.33293 11.8504 3.19985 11.7882C3.06676 11.726 2.94902 11.6352 2.855 11.5223C2.75867 11.411 2.6881 11.2798 2.64834 11.138C2.60859 10.9963 2.60061 10.8475 2.625 10.7023Z" />
</svg>
