<svg width="224" height="86" viewBox="0 0 224 86" fill="none" xmlns="http://www.w3.org/2000/svg">
<g clip-path="url(#clip0)">
<path d="M154.383 63.813H57.8641V3.81615C57.8641 2.4151 58.939 1.32484 60.2323 1.32484H60.2323L152.015 1.3241C153.308 1.3241 154.383 2.41435 154.383 3.8154V63.813Z" fill="white" stroke="#A7ACB4"/>
<path d="M60.2323 1.24783H152.015C153.303 1.24783 154.383 2.34322 154.383 3.73914V71.7913C154.383 73.1872 153.303 74.2826 152.015 74.2826H60.2323C58.944 74.2826 57.8641 73.1872 57.8641 71.7913V3.73914C57.8641 2.34322 58.944 1.24783 60.2323 1.24783Z" stroke="#A7ACB4"/>
<path d="M152.015 0.747833H60.2323C58.6482 0.747833 57.3641 2.08709 57.3641 3.73914V71.7913C57.3641 73.4434 58.6482 74.7826 60.2323 74.7826H152.015C153.599 74.7826 154.883 73.4434 154.883 71.7913V3.73914C154.883 2.08709 153.599 0.747833 152.015 0.747833Z" stroke="#A7ACB4" stroke-width="2"/>
<path d="M57.3641 64.313H154.166" stroke="#A7ACB4" stroke-width="2"/>
<path d="M63.8176 50.1044C63.8176 49.311 64.1198 48.5502 64.6577 47.9892C65.1956 47.4282 65.9251 47.1131 66.6858 47.1131C67.4465 47.1131 68.176 47.4282 68.7139 47.9892C69.2518 48.5502 69.554 49.311 69.554 50.1044C69.554 50.8977 69.2518 51.6586 68.7139 52.2195C68.176 52.7805 67.4465 53.0957 66.6858 53.0957C65.9251 53.0957 65.1956 52.7805 64.6577 52.2195C64.1198 51.6586 63.8176 50.8977 63.8176 50.1044ZM83.895 50.1044C83.895 49.311 84.1972 48.5502 84.7351 47.9892C85.273 47.4282 86.0025 47.1131 86.7632 47.1131C87.5239 47.1131 88.2535 47.4282 88.7914 47.9892C89.3293 48.5502 89.6314 49.311 89.6314 50.1044C89.6314 50.8977 89.3293 51.6586 88.7914 52.2195C88.2535 52.7805 87.5239 53.0957 86.7632 53.0957C86.0025 53.0957 85.273 52.7805 84.7351 52.2195C84.1972 51.6586 83.895 50.8977 83.895 50.1044ZM101.821 12.713C101.821 11.9197 102.124 11.1589 102.661 10.5979C103.199 10.0369 103.929 9.72174 104.69 9.72174C105.45 9.72174 106.18 10.0369 106.718 10.5979C107.256 11.1589 107.558 11.9197 107.558 12.713C107.558 13.5064 107.256 14.2672 106.718 14.8282C106.18 15.3892 105.45 15.7044 104.69 15.7044C103.929 15.7044 103.199 15.3892 102.661 14.8282C102.124 14.2672 101.821 13.5064 101.821 12.713ZM116.879 42.6261C116.879 41.8328 117.182 41.0719 117.719 40.5109C118.257 39.9499 118.987 39.6348 119.748 39.6348C120.508 39.6348 121.238 39.9499 121.776 40.5109C122.314 41.0719 122.616 41.8328 122.616 42.6261C122.616 43.4194 122.314 44.1803 121.776 44.7413C121.238 45.3022 120.508 45.6174 119.748 45.6174C118.987 45.6174 118.257 45.3022 117.719 44.7413C117.182 44.1803 116.879 43.4194 116.879 42.6261Z" stroke="#6CB61E" stroke-width="2"/>
<path d="M118.313 39.6348L106.124 15.7043M73.8563 39.6348C73.8563 38.8414 74.1585 38.0806 74.6964 37.5196C75.2342 36.9586 75.9638 36.6435 76.7245 36.6435C77.4852 36.6435 78.2147 36.9586 78.7526 37.5196C79.2905 38.0806 79.5927 38.8414 79.5927 39.6348C79.5927 40.4281 79.2905 41.189 78.7526 41.75C78.2147 42.3109 77.4852 42.6261 76.7245 42.6261C75.9638 42.6261 75.2342 42.3109 74.6964 41.75C74.1585 41.189 73.8563 40.4281 73.8563 39.6348ZM68.8369 47.8609L74.5733 41.8783L68.8369 47.8609ZM122.616 40.3826L136.957 25.4261L122.616 40.3826ZM88.9144 47.113L103.255 15.7043L88.9144 47.113ZM84.612 47.8609L78.8756 41.8783L84.612 47.8609Z" stroke="#6CB61E" stroke-width="2"/>
<path d="M63.8176 10.7687C63.8176 10.0944 64.0745 9.44763 64.5317 8.9708C64.9889 8.49397 65.609 8.22609 66.2556 8.22609C66.9022 8.22609 67.5223 8.49397 67.9795 8.9708C68.4367 9.44763 68.6936 10.0944 68.6936 10.7687C68.6936 11.443 68.4367 12.0898 67.9795 12.5666C67.5223 13.0434 66.9022 13.3113 66.2556 13.3113C65.609 13.3113 64.9889 13.0434 64.5317 12.5666C64.0745 12.0898 63.8176 11.443 63.8176 10.7687ZM71.8486 19.1444C71.8486 18.47 72.1054 17.8233 72.5626 17.3465C73.0199 16.8696 73.64 16.6017 74.2866 16.6017C74.9331 16.6017 75.5533 16.8696 76.0105 17.3465C76.4677 17.8233 76.7245 18.47 76.7245 19.1444C76.7245 19.8187 76.4677 20.4654 76.0105 20.9422C75.5533 21.4191 74.9331 21.687 74.2866 21.687C73.64 21.687 73.0199 21.4191 72.5626 20.9422C72.1054 20.4654 71.8486 19.8187 71.8486 19.1444Z" fill="white" stroke="#A7ACB4" stroke-width="2"/>
<path d="M76.0075 8.97391L63.961 21.5374" stroke="#A7ACB4" stroke-width="2"/>
<path d="M9.04065 84.7491H213.962M95.2536 75.7084C95.2536 75.7084 93.9246 81.6604 90.6114 84.7491H122.444C119.131 81.6604 117.802 75.7084 117.802 75.7084H95.2536Z" stroke="#A7ACB4" stroke-width="2"/>
<path d="M139.108 18.6956H170.658C171.609 18.6956 172.521 19.0896 173.193 19.7908C173.866 20.492 174.243 21.4431 174.243 22.4348V81.513C174.243 82.5047 173.866 83.4558 173.193 84.157C172.521 84.8582 171.609 85.2522 170.658 85.2522H139.108C138.157 85.2522 137.245 84.8582 136.573 84.157C135.9 83.4558 135.523 82.5047 135.523 81.513V22.4348C135.523 21.4431 135.9 20.492 136.573 19.7908C137.245 19.0896 138.157 18.6956 139.108 18.6956Z" fill="#F3F7FB" stroke="#A7ACB4" stroke-width="2"/>
<path d="M138.391 26.1739H171.375V77.7739H138.391V26.1739Z" fill="white" stroke="#A7ACB4" stroke-width="2"/>
<path d="M156.833 44.5861L150.547 34.1944M159.522 43.4382L162.799 39.6094L159.522 43.4382ZM144.837 50.3107L150.673 34.1936L144.837 50.3107Z" stroke="#6CB61E" stroke-width="2"/>
<path d="M141.704 50.2075C141.704 49.4142 142.006 48.6534 142.544 48.0924C143.082 47.5314 143.811 47.2162 144.572 47.2162C145.333 47.2162 146.062 47.5314 146.6 48.0924C147.138 48.6534 147.44 49.4142 147.44 50.2075C147.44 51.0009 147.138 51.7617 146.6 52.3227C146.062 52.8837 145.333 53.1989 144.572 53.1989C143.811 53.1989 143.082 52.8837 142.544 52.3227C142.006 51.7617 141.704 51.0009 141.704 50.2075ZM147.44 34.5032C147.44 33.7099 147.742 32.949 148.28 32.388C148.818 31.8271 149.548 31.5119 150.308 31.5119C151.069 31.5119 151.799 31.8271 152.336 32.388C152.874 32.949 153.177 33.7099 153.177 34.5032C153.177 35.2965 152.874 36.0574 152.336 36.6184C151.799 37.1794 151.069 37.4945 150.308 37.4945C149.548 37.4945 148.818 37.1794 148.28 36.6184C147.742 36.0574 147.44 35.2965 147.44 34.5032ZM154.611 44.9728C154.611 44.1794 154.913 43.4186 155.451 42.8576C155.989 42.2966 156.718 41.9815 157.479 41.9815C158.24 41.9815 158.969 42.2966 159.507 42.8576C160.045 43.4186 160.347 44.1794 160.347 44.9728C160.347 45.7661 160.045 46.527 159.507 47.0879C158.969 47.6489 158.24 47.9641 157.479 47.9641C156.718 47.9641 155.989 47.6489 155.451 47.0879C154.913 46.527 154.611 45.7661 154.611 44.9728ZM162.498 37.4945C162.498 36.7012 162.8 35.9403 163.338 35.3793C163.876 34.8184 164.606 34.5032 165.366 34.5032C166.127 34.5032 166.857 34.8184 167.395 35.3793C167.932 35.9403 168.235 36.7012 168.235 37.4945C168.235 38.2879 167.932 39.0487 167.395 39.6097C166.857 40.1707 166.127 40.4858 165.366 40.4858C164.606 40.4858 163.876 40.1707 163.338 39.6097C162.8 39.0487 162.498 38.2879 162.498 37.4945Z" fill="white" stroke="#6CB61E" stroke-width="2"/>
<path d="M142.693 71.7913H167.79M142.693 58.3304H167.79H142.693ZM142.693 62.8174H167.79H142.693ZM142.693 67.3043H167.79H142.693Z" stroke="#A7ACB4" stroke-width="2"/>
<path d="M30.8332 44.4957C30.8332 41.811 33.0805 39.6348 35.8526 39.6348C38.6247 39.6348 40.8719 41.811 40.8719 44.4957C40.8719 47.1804 38.6247 49.3565 35.8526 49.3565C33.0805 49.3565 30.8332 47.1804 30.8332 44.4957Z" stroke="#A7ACB4" stroke-width="2"/>
<path d="M29.3991 55.3391L30.1162 68.0522H41.589M35.8526 84.5043V72.5391M182.145 49.3565C182.042 41.3981 185.942 38.8869 188.585 38.8869C191.227 38.8869 195.148 40.8664 195.024 49.3565M30.8475 43.4079C31.0447 40.8982 33.2102 38.9209 35.8526 38.9209C38.4949 38.9209 40.6597 40.8982 40.8576 43.4079H30.8475ZM28.682 50.8522C27.9214 50.8522 27.1918 51.1673 26.6539 51.7283C26.116 52.2893 25.8138 53.0501 25.8138 53.8435L26.5309 64.313C26.5309 65.1064 26.8331 65.8672 27.371 66.4282C27.9089 66.9892 28.6384 67.3043 29.3991 67.3043H30.1162L31.5503 85.2522H40.1549L42.306 55.3391H50.1936C50.9543 55.3391 51.6838 55.024 52.2217 54.463C52.7596 53.902 53.0618 53.1412 53.0618 52.3478V50.8522H40.1549L35.8526 54.5913L31.5503 50.8522H28.682Z" stroke="#A7ACB4" stroke-width="2"/>
<path d="M182.145 48.6087C182.343 46.099 185.942 39.6348 188.585 39.6348C191.227 39.6348 194.826 46.099 195.024 48.6087" stroke="#A7ACB4" stroke-width="2"/>
<path d="M188.585 75.5304V85.2522M183.565 45.9913C183.565 43.3066 185.812 41.1304 188.585 41.1304C191.357 41.1304 193.604 43.3066 193.604 45.9913C193.604 48.676 191.357 50.8522 188.585 50.8522C185.812 50.8522 183.565 48.676 183.565 45.9913ZM184.282 52.3478H182.848C182.087 52.3478 181.358 52.663 180.82 53.224C180.282 53.7849 179.98 54.5458 179.98 55.3391V64.313C179.98 65.9657 181.263 66.5565 182.848 66.5565L183.565 67.3043V74.0348H193.604L194.321 67.3043L195.038 66.5565C196.623 66.5565 197.189 65.9657 197.189 64.313V55.3391C197.189 54.5458 196.887 53.7849 196.349 53.224C195.811 52.663 195.082 52.3478 194.321 52.3478H191.965C191.474 53.655 190.146 54.5913 188.585 54.5913C187.024 54.5913 185.696 53.655 185.204 52.3478H184.282ZM182.848 67.3043L182.131 56.087L182.848 67.3043ZM194.321 67.3043L195.038 56.087L194.321 67.3043ZM182.131 68.0522H193.604H182.131ZM184.282 74.0348H192.887L190.736 85.2522H186.433L184.282 74.0348Z" stroke="#A7ACB4" stroke-width="2"/>
<path d="M193.387 47.6131H195.255V49.6044H193.387V47.6131ZM181.914 47.6131H183.782V49.6044H181.914V47.6131Z" fill="#18253A" fill-opacity="0.38" stroke="#A7ACB4"/>
</g>
<defs>
<clipPath id="clip0">
<rect width="223.003" height="86" fill="white"/>
</clipPath>
</defs>
</svg>
