<svg width="32" height="33" viewBox="0 0 32 33" fill="none" xmlns="http://www.w3.org/2000/svg">
<g clip-path="url(#clip0)">
<path d="M24.0733 12.046C23.7351 12.1807 23.5687 12.5677 23.7017 12.9104C24.231 14.2743 24.4994 15.718 24.4994 17.2014C24.4994 23.661 19.3112 28.9161 12.934 28.9161C6.55943 28.9161 1.37331 23.6609 1.37331 17.2014C1.37331 10.743 6.55943 5.48873 12.934 5.48873C16.1501 5.48873 19.1374 6.79266 21.3453 9.16018C21.5949 9.42785 22.0113 9.43978 22.2754 9.18692C22.5396 8.93405 22.5514 8.51212 22.3018 8.24445C21.1104 6.96686 19.7041 5.96146 18.122 5.25606C16.4837 4.52573 14.7382 4.1554 12.9339 4.1554C5.83362 4.1554 0.0572205 10.0078 0.0572205 17.2014C0.0572205 24.3961 5.83362 30.2494 12.9339 30.2494C16.3749 30.2494 19.6097 28.8925 22.0424 26.4287C24.4754 23.9646 25.8153 20.6876 25.8153 17.2014C25.8153 15.5503 25.5162 13.9424 24.9264 12.4224C24.7934 12.0798 24.4116 11.9112 24.0733 12.046Z" fill="#4CBA38"/>
<path d="M19.2454 11.4669C19.4959 11.2003 19.4857 10.7783 19.2225 10.5244C17.5188 8.88114 15.2855 7.97607 12.9339 7.97607C7.9159 7.97607 3.83347 12.1145 3.83347 17.2012C3.83347 22.2882 7.9159 26.4268 12.9339 26.4268C17.9574 26.4268 22.0443 22.2882 22.0443 17.2012C22.0443 16.2499 21.9012 15.3131 21.6188 14.4168C21.5084 14.0661 21.1381 13.8725 20.792 13.9843C20.4457 14.0963 20.2547 14.4714 20.3651 14.8221C20.6061 15.5873 20.7283 16.3877 20.7283 17.2012C20.7283 21.553 17.2318 25.0935 12.9339 25.0935C8.64152 25.0935 5.14942 21.553 5.14942 17.2012C5.14942 12.8497 8.64152 9.3094 12.9339 9.3094C14.9461 9.3094 16.8572 10.0839 18.3151 11.4901C18.5783 11.744 18.9948 11.7336 19.2454 11.4669Z" fill="#4CBA38"/>
<path d="M12.9339 12.9031C13.73 12.9031 14.5039 13.1261 15.1732 13.5486C15.2789 13.615 15.3791 13.6851 15.471 13.7568C15.7589 13.9814 16.172 13.9271 16.3937 13.6354C16.6155 13.3437 16.5618 12.9251 16.2739 12.7005C16.147 12.6015 16.01 12.5056 15.868 12.4164C14.9909 11.8626 13.9763 11.5698 12.9338 11.5698C9.87191 11.5698 7.3808 14.0961 7.3808 17.2013C7.3808 20.3075 9.87184 22.8347 12.9338 22.8347C16.0007 22.8347 18.4958 20.3075 18.4958 17.2013C18.4958 16.9477 18.4791 16.6997 18.4446 16.4431C18.3957 16.0783 18.0641 15.823 17.704 15.8723C17.3439 15.922 17.0917 16.2579 17.1407 16.6228C17.1671 16.8193 17.1799 17.0085 17.1799 17.2013C17.1799 19.5723 15.2751 21.5013 12.9338 21.5013C10.5975 21.5013 8.69676 19.5723 8.69676 17.2013C8.69689 14.8312 10.5976 12.9031 12.9339 12.9031Z" fill="#4CBA38"/>
<path d="M31.3199 8.86018L28.6343 7.23311L28.3127 4.11285C28.289 3.88252 28.149 3.68125 27.943 3.58105C27.737 3.48092 27.4944 3.49619 27.3022 3.62145L24.7175 5.30678C24.532 5.42772 24.4187 5.63485 24.4157 5.85832L24.3694 9.32124L13.9476 15.7344C13.648 15.5146 13.2805 15.3846 12.8835 15.3846C11.8765 15.3846 11.0573 16.2141 11.0573 17.2336C11.0573 18.2532 11.8766 19.0826 12.8835 19.0826C13.8878 19.0826 14.7049 18.2532 14.7049 17.2336C14.7049 17.103 14.6913 16.9755 14.6658 16.8524L25.1312 10.4124L28.1301 11.7265C28.2138 11.7632 28.3027 11.7812 28.3913 11.7812C28.5154 11.7812 28.6388 11.7457 28.7463 11.6758L31.3372 9.99351C31.5291 9.86897 31.6437 9.65271 31.6402 9.42191C31.6366 9.19117 31.5154 8.97864 31.3199 8.86018ZM28.3311 10.3619L25.687 9.20337L25.7267 6.23438L27.115 5.32918L27.3597 7.70331C27.3812 7.91211 27.4986 8.09851 27.6764 8.20624L29.7325 9.45191L28.3311 10.3619Z" fill="#4CBA38"/>
</g>
<defs>
<clipPath id="clip0">
<rect x="0.0572205" y="0.882324" width="31.5831" height="32" fill="white"/>
</clipPath>
</defs>
</svg>
