<svg width="20" height="20" fill="none" xmlns="http://www.w3.org/2000/svg"><path d="M19 16h-6.18A3 3 0 0011 14.18V12h3.67A2.34 2.34 0 0017 9.67V4.33A2.34 2.34 0 0014.67 2h-4l-.13-.41A2.34 2.34 0 008.37 0h-3A2.34 2.34 0 003 2.33v7.34A2.34 2.34 0 005.33 12H9v2.18A3 3 0 007.18 16H1a1 1 0 000 2h6.18a3 3 0 005.64 0H19a1 1 0 100-2zM5.33 10A.33.33 0 015 9.67V2.33A.33.33 0 015.33 2h3a.33.33 0 01.32.23l.36 1.09A1 1 0 0010 4h4.67a.33.33 0 01.33.33v5.34a.33.33 0 01-.33.33H5.33zM10 18a1 1 0 110-2 1 1 0 010 2z" fill="#fff"/></svg>