<svg width="20" height="21" fill="none" xmlns="http://www.w3.org/2000/svg"><path d="M9.5 18h-6a1 1 0 01-1-1V3a1 1 0 011-1h5v3a3 3 0 003 3h3v5a1 1 0 002 0V6.94a1.307 1.307 0 00-.06-.27v-.09a1.068 1.068 0 00-.19-.28l-6-6a1.068 1.068 0 00-.28-.19.29.29 0 00-.1 0A1.1 1.1 0 009.56 0H3.5a3 3 0 00-3 3v14a3 3 0 003 3h6a1 1 0 000-2zm1-14.59L13.09 6H11.5a1 1 0 01-1-1V3.41zM5.5 12h6a1 1 0 000-2h-6a1 1 0 000 2zm4 2h-4a1 1 0 000 2h4a1 1 0 000-2zm-4-6h1a1 1 0 000-2h-1a1 1 0 000 2zm13.71 6.29a1 1 0 00-1.42 0l-3.29 3.3-1.29-1.3a1.005 1.005 0 00-1.42 1.42l2 2a1.001 1.001 0 001.42 0l4-4a.999.999 0 000-1.42z" fill="#fff"/></svg>