<svg width="224" height="86" fill="none" xmlns="http://www.w3.org/2000/svg"><g clip-path="url(#clip0)"><path d="M154.383 63.813H57.864V3.816c0-1.4 1.075-2.491 2.368-2.491h91.783c1.293 0 2.368 1.09 2.368 2.49v59.998z" fill="#fff" stroke="#A7ACB4"/><path d="M60.232 1.248h91.783c1.288 0 2.368 1.095 2.368 2.491v68.052c0 1.396-1.08 2.492-2.368 2.492H60.232c-1.288 0-2.368-1.096-2.368-2.492V3.74c0-1.396 1.08-2.491 2.368-2.491z" stroke="#A7ACB4"/><path d="M152.015.748H60.232c-1.584 0-2.868 1.34-2.868 2.991v68.052c0 1.652 1.284 2.992 2.868 2.992h91.783c1.584 0 2.868-1.34 2.868-2.992V3.74c0-1.652-1.284-2.991-2.868-2.991zM57.364 64.313h96.802" stroke="#A7ACB4" stroke-width="2"/><path d="M63.818 50.104c0-.793.302-1.554.84-2.115a2.81 2.81 0 012.028-.876c.76 0 1.49.315 2.028.876.538.561.84 1.322.84 2.115 0 .794-.302 1.555-.84 2.115a2.81 2.81 0 01-2.028.877 2.81 2.81 0 01-2.028-.877 3.057 3.057 0 01-.84-2.115zm20.077 0c0-.793.302-1.554.84-2.115a2.81 2.81 0 012.028-.876c.76 0 1.49.315 2.028.876.538.561.84 1.322.84 2.115 0 .794-.302 1.555-.84 2.115a2.81 2.81 0 01-2.028.877 2.81 2.81 0 01-2.028-.877 3.057 3.057 0 01-.84-2.115zm17.926-37.391c0-.793.303-1.554.84-2.115a2.811 2.811 0 012.029-.876c.76 0 1.49.315 2.028.876.538.56.84 1.322.84 2.115 0 .793-.302 1.554-.84 2.115a2.81 2.81 0 01-2.028.876 2.811 2.811 0 01-2.029-.876 3.062 3.062 0 01-.84-2.115zm15.058 29.913c0-.793.303-1.554.84-2.115a2.811 2.811 0 012.029-.876c.76 0 1.49.315 2.028.876.538.56.84 1.322.84 2.115 0 .793-.302 1.554-.84 2.115a2.811 2.811 0 01-2.028.876 2.812 2.812 0 01-2.029-.876 3.062 3.062 0 01-.84-2.115zm1.434-2.991l-12.189-23.93m-32.268 23.93c0-.794.303-1.554.84-2.115a2.81 2.81 0 012.029-.877c.76 0 1.49.316 2.028.877.537.56.84 1.321.84 2.115 0 .793-.303 1.554-.84 2.115a2.81 2.81 0 01-2.028.876 2.81 2.81 0 01-2.029-.876 3.058 3.058 0 01-.84-2.115zm-5.02 8.226l5.737-5.983-5.736 5.983zm53.78-7.478l14.341-14.957-14.341 14.957zm-33.702 6.73l14.341-31.409-14.34 31.409zm-4.302.748l-5.736-5.983 5.736 5.983z" stroke="#6CB61E" stroke-width="2"/><path d="M63.818 10.769a2.6 2.6 0 01.714-1.798 2.388 2.388 0 011.724-.745 2.39 2.39 0 011.724.745 2.6 2.6 0 01.714 1.798 2.6 2.6 0 01-.715 1.798 2.388 2.388 0 01-1.723.744 2.388 2.388 0 01-1.724-.744 2.6 2.6 0 01-.714-1.798zm8.03 8.375c0-.674.257-1.32.715-1.797a2.388 2.388 0 011.724-.745 2.39 2.39 0 011.723.744c.458.477.715 1.124.715 1.798 0 .675-.257 1.321-.715 1.798a2.388 2.388 0 01-1.723.745 2.388 2.388 0 01-1.724-.745 2.599 2.599 0 01-.714-1.798z" fill="#fff" stroke="#A7ACB4" stroke-width="2"/><path d="M76.007 8.974L63.961 21.537M9.04 84.75h204.922M95.254 75.707s-1.33 5.952-4.643 9.041h31.833c-3.313-3.089-4.642-9.04-4.642-9.04H95.254z" stroke="#A7ACB4" stroke-width="2"/><path d="M139.108 18.696h31.55c.951 0 1.863.394 2.535 1.095a3.82 3.82 0 011.05 2.644v59.078a3.82 3.82 0 01-1.05 2.644 3.511 3.511 0 01-2.535 1.095h-31.55a3.511 3.511 0 01-2.535-1.095 3.82 3.82 0 01-1.05-2.644V22.435a3.82 3.82 0 011.05-2.644 3.511 3.511 0 012.535-1.095z" fill="#F3F7FB" stroke="#A7ACB4" stroke-width="2"/><path d="M138.391 26.174h32.984v51.6h-32.984v-51.6z" fill="#fff" stroke="#A7ACB4" stroke-width="2"/><path d="M156.833 44.586l-6.286-10.392m8.975 9.244l3.277-3.829-3.277 3.83zm-14.685 6.873l5.836-16.117-5.836 16.117z" stroke="#6CB61E" stroke-width="2"/><path d="M141.704 50.208c0-.794.302-1.555.84-2.116a2.809 2.809 0 012.028-.876c.761 0 1.49.315 2.028.876.538.561.84 1.322.84 2.116 0 .793-.302 1.554-.84 2.115a2.809 2.809 0 01-2.028.876c-.761 0-1.49-.315-2.028-.876a3.057 3.057 0 01-.84-2.115zm5.736-15.705c0-.793.302-1.554.84-2.115a2.811 2.811 0 012.028-.876c.761 0 1.491.315 2.028.876.538.561.841 1.322.841 2.115 0 .794-.303 1.554-.841 2.115a2.807 2.807 0 01-2.028.877 2.81 2.81 0 01-2.028-.877 3.057 3.057 0 01-.84-2.115zm7.171 10.47c0-.794.302-1.554.84-2.115a2.809 2.809 0 012.028-.877c.761 0 1.49.316 2.028.877.538.56.84 1.321.84 2.115 0 .793-.302 1.554-.84 2.115a2.809 2.809 0 01-2.028.876c-.761 0-1.49-.315-2.028-.876a3.057 3.057 0 01-.84-2.115zm7.887-7.478c0-.794.302-1.555.84-2.116a2.811 2.811 0 012.028-.876c.761 0 1.491.315 2.029.876.537.561.84 1.322.84 2.116 0 .793-.303 1.554-.84 2.115a2.811 2.811 0 01-2.029.876 2.81 2.81 0 01-2.028-.876 3.057 3.057 0 01-.84-2.115z" fill="#fff" stroke="#6CB61E" stroke-width="2"/><path d="M142.693 71.791h25.097m-25.097-13.46h25.097-25.097zm0 4.486h25.097-25.097zm0 4.487h25.097-25.097zM30.833 44.496c0-2.685 2.248-4.861 5.02-4.861 2.772 0 5.019 2.176 5.019 4.86 0 2.685-2.247 4.861-5.02 4.861-2.771 0-5.019-2.176-5.019-4.86z" stroke="#A7ACB4" stroke-width="2"/><path d="M29.4 55.34l.716 12.712H41.59m-5.736 16.452V72.54m146.292-23.183c-.103-7.958 3.797-10.47 6.44-10.47 2.642 0 6.563 1.98 6.439 10.47M30.847 43.408c.198-2.51 2.363-4.487 5.006-4.487 2.642 0 4.807 1.977 5.005 4.487h-10.01zm-2.165 7.444c-.76 0-1.49.315-2.028.876a3.058 3.058 0 00-.84 2.115l.717 10.47c0 .793.302 1.554.84 2.115a2.81 2.81 0 002.028.876h.717l1.434 17.948h8.605l2.151-29.913h7.888c.76 0 1.49-.315 2.028-.876.538-.561.84-1.322.84-2.115v-1.496H40.155l-4.302 3.74-4.303-3.74h-2.868z" stroke="#A7ACB4" stroke-width="2"/><path d="M182.145 48.609c.198-2.51 3.797-8.974 6.44-8.974 2.642 0 6.241 6.464 6.439 8.974" stroke="#A7ACB4" stroke-width="2"/><path d="M188.585 75.53v9.722m-5.02-39.26c0-2.685 2.247-4.862 5.02-4.862 2.772 0 5.019 2.177 5.019 4.861 0 2.685-2.247 4.861-5.019 4.861-2.773 0-5.02-2.176-5.02-4.86zm.717 6.356h-1.434c-.761 0-1.49.315-2.028.876a3.057 3.057 0 00-.84 2.115v8.974c0 1.653 1.283 2.243 2.868 2.243l.717.748v6.73h10.039l.717-6.73.717-.748c1.585 0 2.151-.59 2.151-2.243v-8.974c0-.793-.302-1.554-.84-2.115a2.809 2.809 0 00-2.028-.876h-2.356c-.491 1.307-1.819 2.243-3.38 2.243s-2.889-.936-3.381-2.243h-.922zm-1.434 14.956l-.717-11.217.717 11.217zm11.473 0l.717-11.217-.717 11.217zm-12.19.748h11.473-11.473zm2.151 5.983h8.605l-2.151 11.217h-4.303l-2.151-11.217z" stroke="#A7ACB4" stroke-width="2"/><path d="M193.387 47.613h1.868v1.991h-1.868v-1.99zm-11.473 0h1.868v1.991h-1.868v-1.99z" fill="#18253A" fill-opacity=".38" stroke="#A7ACB4"/></g><defs><clipPath id="clip0"><path fill="#fff" d="M0 0h223.003v86H0z"/></clipPath></defs></svg>