<svg aria-hidden="true" style="position:absolute;width:0;height:0" xmlns="http://www.w3.org/2000/svg" overflow="hidden"><defs><symbol id="icon-arrow_drop_down" viewBox="0 0 24 24"><path fill="#DDE3ED" d="M6.984 9.984h10.031L11.999 15z"/></symbol><symbol id="bell-icon" viewBox="0 0 26 32"><path class="svg-color" fill="$main-white-color" d="M22.401 17.888V12.8a9.6 9.6 0 00-8-9.456V1.6a1.6 1.6 0 00-3.2 0v1.744a9.604 9.604 0 00-8 9.456v5.088a4.797 4.797 0 00-3.2 4.512v3.2a1.6 1.6 0 001.6 1.6h5.024a6.397 6.397 0 006.176 4.722 6.395 6.395 0 006.176-4.722h5.024c.424 0 .831-.169 1.132-.469s.468-.707.468-1.131v-3.2a4.8 4.8 0 00-3.2-4.512zm-16-5.088a6.4 6.4 0 0112.801 0v4.8h-12.8v-4.8zm6.4 16a3.204 3.204 0 01-2.752-1.6h5.504a3.198 3.198 0 01-2.752 1.6zm9.6-4.8h-19.2v-1.6a1.6 1.6 0 011.6-1.6h16c.424 0 .831.169 1.132.469s.468.707.468 1.131V24z"/></symbol><symbol id="clock-icon" viewBox="0 0 35 32"><path class="svg-color" fill="var(--color2, $main-white-color)" d="M17.601 0A15.994 15.994 0 004.906 6.224a15.994 15.994 0 00-2.805 13.857 15.998 15.998 0 0023.388 9.823h.192a16.003 16.003 0 007.53-18.078A15.998 15.998 0 0017.6.001zm1.6 3.312A12.803 12.803 0 0130.289 14.4H19.201V3.312zm-1.6 25.488A12.796 12.796 0 014.914 16.802a12.796 12.796 0 0111.087-13.49V16c.006.192.044.381.112.56v.24l6.4 10.992a12.507 12.507 0 01-4.912 1.008zm7.728-2.624l-4.96-8.576h9.92c-.215 1.687-.765 3.315-1.617 4.787s-1.988 2.76-3.343 3.789z"/></symbol><symbol id="colb-icon" viewBox="0 0 29 32"><path class="svg-color" fill="var(--color1, $main-white-color)" d="M27.377 24.784l-8.176-14.016V3.2h1.6a1.6 1.6 0 000-3.2h-12.8a1.6 1.6 0 000 3.2h1.6v7.568L1.425 24.784a4.798 4.798 0 001.742 6.569c.73.423 1.559.646 2.403.647h17.6a4.807 4.807 0 004.159-2.41 4.8 4.8 0 00-.014-4.806h.064zm-14.8-12.8c.141-.238.218-.508.224-.784v-8h3.2v8c.003.282.08.558.224.8l1.376 2.4h-6.4l1.376-2.416zm12.032 16a1.6 1.6 0 01-1.376.8h-17.6a1.6 1.6 0 01-1.376-2.4L9.329 17.6h10.16l5.12 8.8a1.603 1.603 0 010 1.6v-.016zM11.201 20.8a1.6 1.6 0 100 3.2 1.6 1.6 0 000-3.2zm6.4 1.6a1.6 1.6 0 100 3.2 1.6 1.6 0 000-3.2z"/></symbol><symbol id="facebook-icon" viewBox="0 0 11 20"><path class="svg-color" fill="var(--color1, $main-white-color)" d="M9.12 3.32H11V.14A26.109 26.109 0 008.26 0C5.54 0 3.68 1.66 3.68 4.7v2.62H.61v3.56h3.07V20h3.68v-9.12h3.06l.46-3.56H7.36V5.05c0-1.05.28-1.73 1.76-1.73z"/></symbol><symbol id="computer-icon" viewBox="0 0 32 32"><path class="svg-color" fill="$main-white-color" d="M4.801 0h22.4a4.8 4.8 0 014.8 4.8v16a4.8 4.8 0 01-4.8 4.8h-4.144l.944 1.6a3.197 3.197 0 01-1.17 4.37 3.214 3.214 0 01-1.598.43H10.897a3.2 3.2 0 01-2.8-4.8l.928-1.6H4.801a4.8 4.8 0 01-4.8-4.8v-16a4.8 4.8 0 014.8-4.8zm14.4 25.6h-6.4l-1.968 3.2h10.288l-1.92-3.2zm9.131-3.669c.3-.3.468-.707.468-1.131v-1.6H3.2v1.6a1.6 1.6 0 001.6 1.6h22.4c.424 0 .831-.169 1.132-.469zM3.201 16h25.6V4.8a1.6 1.6 0 00-1.6-1.6h-22.4a1.6 1.6 0 00-1.6 1.6V16zm8-6.4h14.4V6.4h-14.4v3.2zm14.4 4.8h-14.4v-3.2h14.4v3.2zm-19.2-8v8h3.2v-8h-3.2z"/></symbol><symbol id="folder-icon" viewBox="0 0 32 32"><path class="svg-color" fill="var(--color1, $main-white-color)" d="M30.401 25.6h-9.888a4.8 4.8 0 00-2.912-2.912V19.2h5.872a3.745 3.745 0 003.728-3.727V6.929a3.743 3.743 0 00-3.728-3.728h-6.4l-.208-.656A3.74 3.74 0 0013.393.001h-4.8A3.741 3.741 0 005.095 2.29a3.744 3.744 0 00-.294 1.439v11.744a3.744 3.744 0 003.728 3.728h5.872v3.488a4.8 4.8 0 00-2.912 2.912H1.601a1.6 1.6 0 000 3.2h9.888a4.799 4.799 0 009.024 0h9.888a1.6 1.6 0 100-3.2zM8.529 16a.528.528 0 01-.528-.528V3.728a.528.528 0 01.528-.528h4.8a.528.528 0 01.512.368l.576 1.744A1.605 1.605 0 0016 6.4h7.472a.528.528 0 01.528.528v8.544a.528.528 0 01-.528.528H8.528zm7.472 12.8a1.6 1.6 0 110-3.2 1.6 1.6 0 010 3.2z"/></symbol><symbol id="list-icon" viewBox="0 0 30 32"><path class="svg-color" fill="var(--color1, $main-white-color)" d="M14.477 27.429H5.334a1.524 1.524 0 01-1.523-1.524V4.572a1.524 1.524 0 011.523-1.523h7.619V7.62a4.572 4.572 0 004.571 4.571h4.571v7.619a1.52 1.52 0 001.524 1.524 1.52 1.52 0 001.524-1.524v-9.234a1.986 1.986 0 00-.091-.411v-.137a1.611 1.611 0 00-.29-.427L15.619.458a1.636 1.636 0 00-.427-.29.431.431 0 00-.152 0A1.683 1.683 0 0014.568 0H5.334A4.572 4.572 0 00.763 4.571v21.333a4.572 4.572 0 004.571 4.571h9.143a1.52 1.52 0 001.524-1.524 1.523 1.523 0 00-1.524-1.524zm1.524-22.233l3.947 3.947h-2.423a1.52 1.52 0 01-1.524-1.523V5.197zm-7.619 13.09h9.143a1.52 1.52 0 001.524-1.524 1.523 1.523 0 00-1.524-1.524H8.382a1.524 1.524 0 000 3.048zm6.095 3.047H8.382a1.524 1.524 0 000 3.048h6.095a1.52 1.52 0 001.524-1.524 1.523 1.523 0 00-1.524-1.524zM8.382 12.19h1.524a1.52 1.52 0 001.524-1.524 1.52 1.52 0 00-1.524-1.524H8.382a1.524 1.524 0 000 3.048zm20.891 9.585a1.533 1.533 0 00-1.082-.451 1.532 1.532 0 00-1.082.451l-5.014 5.029-1.966-1.981a1.538 1.538 0 00-1.082-.448 1.522 1.522 0 00-1.413.944 1.522 1.522 0 000 1.17c.077.186.19.354.332.496l3.048 3.048a1.533 1.533 0 001.082.451 1.532 1.532 0 001.082-.451l6.095-6.095a1.533 1.533 0 00.451-1.082 1.532 1.532 0 00-.451-1.082z"/></symbol><symbol id="plus-icon" viewBox="0 0 32 32"><path class="svg-color" fill="var(--color1, $main-white-color)" d="M16.001 0A15.998 15.998 0 004.688 27.313a15.994 15.994 0 0024.616-2.425 16.002 16.002 0 00-7.18-23.671 16.002 16.002 0 00-6.123-1.218zm0 28.8a12.802 12.802 0 01-11.825-7.901 12.807 12.807 0 012.775-13.95 12.801 12.801 0 0119.693 1.939 12.796 12.796 0 01-1.592 16.162 12.8 12.8 0 01-9.051 3.749zm6.4-14.4h-4.8V9.6a1.6 1.6 0 00-3.2 0v4.8h-4.8a1.6 1.6 0 000 3.2h4.8v4.8a1.6 1.6 0 003.2 0v-4.8h4.8a1.6 1.6 0 000-3.2z"/></symbol><symbol id="target-icon" viewBox="0 0 37 32"><path class="svg-color" fill="var(--color3, $main-white-color)" d="M32.77 5.554l3.601 2.115c.262.154.425.43.43.73s-.149.581-.406.743l-3.474 2.187a.892.892 0 01-.826.066l-4.021-1.708-10.353 6.533c.034.16.052.326.052.496 0 1.326-1.096 2.404-2.442 2.404-1.35 0-2.449-1.078-2.449-2.404s1.098-2.404 2.449-2.404c.532 0 1.025.169 1.427.455l10.295-6.498.062-4.502a.862.862 0 01.405-.717L30.986.859c.258-.163.583-.183.859-.053s.464.392.496.691l.431 4.057zm-3.952 2.561l3.545 1.506 1.879-1.183-2.757-1.62a.864.864 0 01-.425-.654l-.328-3.087-1.861 1.177-.053 3.86zM14.721 30.16c7.113 0 12.88-5.767 12.88-12.88 0-.906-.094-1.791-.272-2.645a.986.986 0 01.42-1.037c.523-.334 1.221-.078 1.353.528.222 1.016.338 2.071.338 3.153 0 8.13-6.59 14.72-14.72 14.72S0 25.409 0 17.279s6.59-14.72 14.72-14.72c3.451 0 6.625 1.188 9.135 3.177.48.38.413 1.108-.103 1.438a.982.982 0 01-1.132-.068 12.821 12.821 0 00-7.901-2.707c-7.113 0-12.88 5.767-12.88 12.88s5.767 12.88 12.88 12.88zm3.86-21.234c.637.295.632 1.151.04 1.53a1.06 1.06 0 01-.991.061 7.36 7.36 0 10-2.909 14.123 7.36 7.36 0 007.36-7.36c0-.036.018-.069.048-.088l.714-.457c.466-.298 1.077-.007 1.077.545a9.2 9.2 0 11-9.2-9.2c1.378 0 2.686.303 3.86.846z"/></symbol><symbol id="wheel-icon" viewBox="0 0 32 32"><path class="svg-color" fill="var(--color1, $main-white-color)" d="M32.001 14.48v-.528l-.144-.96-.144-.624c0-.272-.128-.544-.208-.816s-.128-.432-.208-.64a3.44 3.44 0 01-.112-.384v-.08a16.159 16.159 0 00-9.44-9.44h-.08l-.368-.112-.672-.208c-.24 0-.496-.128-.736-.192l-.736-.16-.736-.112c-.256 0-.496 0-.768-.096s-.56 0-.832 0L16.001 0h-1.456c-.272 0-.512 0-.768.096l-.736.112-.736.16c-.24 0-.496.112-.736.192l-.672.208-.368.112h-.08a16.159 16.159 0 00-9.44 9.44v.08a3.44 3.44 0 01-.112.384c0 .208-.144.416-.208.64s-.144.544-.208.816l-.144.624-.144.96v4.096l.144.96.144.624c0 .272.128.544.208.816s.128.432.208.64c.045.126.082.254.112.384a.698.698 0 010 .112 15.997 15.997 0 009.424 9.408h.08l.384.112.64.208.816.208.624.144.96.144h.528c.496 0 1.008.08 1.52.08s1.024 0 1.52-.08h.528l.96-.144.624-.144.816-.208.64-.208.384-.112h.08a16.012 16.012 0 009.424-9.408.698.698 0 010-.112c0-.128.08-.256.112-.384s.144-.416.208-.64c.064-.224.144-.544.208-.816l.144-.624.144-.96v-.528c0-.496.08-1.008.08-1.52s.144-.896.144-1.392zm-10.08-9.856a12.804 12.804 0 015.536 5.536l-4.576 1.6a8.22 8.22 0 00-2.624-2.624l1.664-4.512zm-8.576-1.12c.336-.08.656-.128.976-.176h.384a13.184 13.184 0 012.752 0h.384c.32 0 .64.096.976.176h.096l-1.6 4.576A7.2 7.2 0 0016.001 8c-.391 0-.782.032-1.168.096l-1.6-4.576.112-.016zm-3.104 1.12l1.6 4.576a8.22 8.22 0 00-2.64 2.624l-4.576-1.6a12.802 12.802 0 015.536-5.6h.08zM3.505 18.736a6.631 6.631 0 01-.16-.96v-.4a11.837 11.837 0 010-2.752v-.4c.03-.323.083-.644.16-.96v-.096l4.576 1.6a7.153 7.153 0 000 2.336l-4.576 1.6v.032zm6.656 8.64a12.804 12.804 0 01-5.536-5.536l4.576-1.6a8.22 8.22 0 002.624 2.624l-1.664 4.512zm8.576 1.12c-.336.08-.656.128-.976.176h-.384c-.915.096-1.837.096-2.752 0h-.384c-.32 0-.64-.096-.976-.176h-.096l1.6-4.576a7.153 7.153 0 002.336 0l1.6 4.576h.032zm-1.072-8c-.272.096-.544.16-.8.224a4.347 4.347 0 01-1.6 0c-.256 0-.528-.128-.8-.224a4.796 4.796 0 01-2.944-2.896 5.105 5.105 0 01-.224-.816 4.221 4.221 0 010-1.6c.049-.266.118-.528.208-.784a4.8 4.8 0 012.896-2.88c.272-.096.544-.16.8-.224a4.39 4.39 0 011.6 0c.256 0 .528.128.8.224a4.783 4.783 0 012.88 2.88c.097.265.172.538.224.816a4.221 4.221 0 010 1.6 4.788 4.788 0 01-3.104 3.664l.064.016zm4.176 6.896l-1.6-4.576a8.22 8.22 0 002.624-2.624l4.576 1.6a12.8 12.8 0 01-5.6 5.584v.016zm6.96-10.016v.4c-.03.324-.083.644-.16.96v.096l-4.576-1.6a7.153 7.153 0 000-2.336l4.576-1.6v.096c.077.316.13.637.16.96v.4c.107.914.107 1.838 0 2.752v-.128z"/></symbol></defs></svg>