<svg width="32" height="33" fill="none" xmlns="http://www.w3.org/2000/svg"><g clip-path="url(#clip0)" fill="#4CBA38"><path d="M24.073 12.046a.67.67 0 00-.371.864 11.82 11.82 0 01.797 4.291c0 6.46-5.188 11.715-11.565 11.715-6.375 0-11.56-5.255-11.56-11.715 0-6.458 5.185-11.712 11.56-11.712 3.216 0 6.203 1.304 8.411 3.671.25.268.666.28.93.027a.673.673 0 00.027-.943 12.834 12.834 0 00-4.18-2.988 12.66 12.66 0 00-5.188-1.1C5.834 4.155.057 10.007.057 17.2c0 7.195 5.777 13.048 12.877 13.048 3.44 0 6.676-1.357 9.108-3.82 2.433-2.464 3.773-5.741 3.773-9.228 0-1.65-.299-3.259-.889-4.779a.655.655 0 00-.853-.376z"/><path d="M19.245 11.467a.673.673 0 00-.023-.943 9.02 9.02 0 00-6.288-2.548c-5.018 0-9.1 4.138-9.1 9.225s4.082 9.226 9.1 9.226c5.023 0 9.11-4.139 9.11-9.226 0-.951-.143-1.888-.425-2.784a.656.656 0 00-.827-.433.669.669 0 00-.427.838 7.91 7.91 0 01.363 2.38c0 4.351-3.496 7.891-7.794 7.891-4.292 0-7.785-3.54-7.785-7.892 0-4.351 3.493-7.892 7.785-7.892a7.72 7.72 0 015.381 2.181c.263.254.68.244.93-.023z"/><path d="M12.934 12.903a4.187 4.187 0 012.537.854c.288.224.701.17.923-.122a.672.672 0 00-.12-.934 5.487 5.487 0 00-3.34-1.13c-3.062-.001-5.553 2.525-5.553 5.63 0 3.107 2.49 5.634 5.553 5.634 3.067 0 5.562-2.527 5.562-5.634 0-.253-.017-.501-.051-.758a.66.66 0 00-.741-.57.665.665 0 00-.563.75 4.3 4.3 0 01.039.578c0 2.371-1.905 4.3-4.246 4.3-2.336 0-4.237-1.929-4.237-4.3 0-2.37 1.9-4.298 4.237-4.298z"/><path d="M31.32 8.86l-2.686-1.627-.321-3.12a.666.666 0 00-.37-.532.65.65 0 00-.64.04l-2.585 1.686a.669.669 0 00-.302.551l-.047 3.463-10.421 6.413c-.3-.22-.668-.35-1.065-.35-1.006 0-1.826.83-1.826 1.85s.82 1.849 1.826 1.849c1.005 0 1.822-.83 1.822-1.85 0-.13-.014-.258-.04-.38l10.466-6.44 3 1.313a.65.65 0 00.615-.05l2.591-1.682a.669.669 0 00-.017-1.134zm-2.989 1.502l-2.644-1.159.04-2.969 1.388-.905.245 2.374a.668.668 0 00.316.503l2.057 1.246-1.402.91z"/></g><defs><clipPath id="clip0"><path fill="#fff" d="M.057.882H31.64v32H.057z"/></clipPath></defs></svg>