<svg viewBox="0 0 23 20" xmlns="http://www.w3.org/2000/svg"><path d="M20.481 3.471l2.251 1.322A.54.54 0 0123 5.25a.54.54 0 01-.253.464l-2.172 1.367a.558.558 0 01-.516.041l-2.514-1.067-6.47 4.083c.021.1.033.203.033.31 0 .828-.685 1.502-1.527 1.502-.844 0-1.53-.674-1.53-1.502 0-.829.686-1.503 1.53-1.503.333 0 .64.106.892.284l6.434-4.061.039-2.814a.54.54 0 01.253-.448l2.166-1.37a.56.56 0 01.537-.033c.173.082.29.245.31.432l.27 2.536zm-2.47 1.601l2.216.941 1.175-.739-1.723-1.012a.541.541 0 01-.266-.409l-.205-1.93-1.163.736-.034 2.413zM9.201 18.85a8.05 8.05 0 007.88-9.703.616.616 0 01.262-.648c.327-.209.763-.049.846.33A9.2 9.2 0 119.201 1.6a9.16 9.16 0 015.71 1.987c.299.237.257.692-.065.898a.615.615 0 01-.707-.042A8.05 8.05 0 109.2 18.85zm2.412-13.271c.398.184.395.72.025.956a.663.663 0 01-.62.038A4.6 4.6 0 1013.8 10.8c0-.022.012-.043.03-.055l.447-.286c.291-.186.674-.004.674.341a5.75 5.75 0 11-3.338-5.221z" fill="red"/></svg>