<svg width="32" height="32" fill="none" xmlns="http://www.w3.org/2000/svg"><g clip-path="url(#clip0)" fill="#2BA860"><path d="M24.016 12.046a.67.67 0 00-.371.864 11.82 11.82 0 01.797 4.291c0 6.46-5.188 11.715-11.565 11.715-6.375 0-11.56-5.255-11.56-11.715 0-6.458 5.185-11.712 11.56-11.712 3.216 0 6.203 1.304 8.411 3.671.25.268.666.28.93.027a.673.673 0 00.027-.943 12.834 12.834 0 00-4.18-2.988 12.66 12.66 0 00-5.188-1.1C5.777 4.155 0 10.007 0 17.2c0 7.196 5.776 13.05 12.877 13.05 3.44 0 6.675-1.357 9.108-3.82a13.052 13.052 0 003.773-9.228c0-1.65-.299-3.259-.889-4.779a.655.655 0 00-.853-.376z"/><path d="M19.188 11.467a.673.673 0 00-.023-.943 9.02 9.02 0 00-6.288-2.548c-5.018 0-9.1 4.138-9.1 9.225s4.082 9.226 9.1 9.226c5.023 0 9.11-4.139 9.11-9.226 0-.951-.143-1.888-.425-2.784a.656.656 0 00-.827-.433.669.669 0 00-.427.838c.24.765.363 1.566.363 2.38 0 4.35-3.497 7.891-7.794 7.891-4.293 0-7.785-3.54-7.785-7.892 0-4.351 3.492-7.892 7.785-7.892 2.012 0 3.923.775 5.38 2.18.264.255.68.244.931-.022z"/><path d="M12.877 12.903a4.187 4.187 0 012.537.854c.288.224.7.17.922-.122a.672.672 0 00-.12-.935 5.487 5.487 0 00-3.34-1.13c-3.061 0-5.553 2.526-5.553 5.631 0 3.106 2.492 5.633 5.553 5.633 3.067 0 5.563-2.527 5.563-5.633a5.56 5.56 0 00-.052-.758.66.66 0 00-.74-.57.665.665 0 00-.564.75c.027.196.04.385.04.578 0 2.371-1.905 4.3-4.247 4.3-2.336 0-4.237-1.929-4.237-4.3 0-2.37 1.901-4.298 4.238-4.298z"/><path d="M31.262 8.86l-2.685-1.627-.322-3.12a.666.666 0 00-.37-.532.65.65 0 00-.64.04L24.66 5.307a.668.668 0 00-.302.551l-.046 3.463-10.422 6.413c-.3-.22-.667-.35-1.064-.35-1.007 0-1.826.83-1.826 1.85s.82 1.849 1.826 1.849c1.005 0 1.822-.83 1.822-1.85 0-.13-.014-.258-.04-.38l10.466-6.44 2.999 1.313a.65.65 0 00.616-.05l2.59-1.683a.669.669 0 00-.017-1.133zm-2.988 1.502L25.63 9.203l.04-2.969 1.388-.905.244 2.374a.668.668 0 00.317.503l2.056 1.246-1.401.91z"/></g><defs><clipPath id="clip0"><path d="M0 .882h31.583v32H0v-32z" fill="#fff"/></clipPath></defs></svg>