<svg width="32" height="32" fill="none" xmlns="http://www.w3.org/2000/svg"><path d="M28.539 12.613a.625.625 0 100-1.25.625.625 0 000 1.25zM12.01 16.242a.625.625 0 100-1.25.625.625 0 000 1.25z" fill="#2BA860"/><path d="M30.138 4.9h-4.86a3.645 3.645 0 00-3.585-3.014 3.645 3.645 0 00-3.585 3.015h-4.86a1.864 1.864 0 00-1.862 1.862V9.91H7.908a2.945 2.945 0 00.547-1.712 2.966 2.966 0 00-2.963-2.963A2.966 2.966 0 002.53 8.198c0 .843.354 1.604.921 2.144C1.425 11.176 0 13.13 0 15.402v4.656c0 1.415 1.1 2.583 2.51 2.733v6.073H.946a.625.625 0 000 1.25h29.839a.625.625 0 000-1.25H26.09l-1.791-5.337h5.84A1.864 1.864 0 0032 21.666V6.763A1.864 1.864 0 0030.138 4.9zm-8.445-1.764c1.101 0 2.031.75 2.307 1.765h-4.614a2.394 2.394 0 012.307-1.765zm-16.2 3.35c.944 0 1.712.767 1.712 1.712 0 .944-.768 1.712-1.713 1.712A1.714 1.714 0 013.78 8.198c0-.945.768-1.713 1.712-1.713zm2.117 6.672v15.706h-1.3v-7.027a.625.625 0 00-1.25 0v7.027h-1.3v-13.3a.625.625 0 10-1.25 0v5.965c-.718-.137-1.26-.745-1.26-1.471v-4.655c0-2.34 1.971-4.243 4.394-4.243H17.13a2.001 2.001 0 01-1.898 1.373H8.235a.625.625 0 00-.625.625zm17.16 15.705h-5.739l1.791-5.335h2.158l1.79 5.335zm5.98-7.197a.613.613 0 01-.612.611h-16.89a.613.613 0 01-.612-.611v-3.657a.625.625 0 00-1.25 0v3.657c0 1.026.835 1.861 1.862 1.861h6.256l-1.791 5.337H8.86v-15.08h6.372a3.251 3.251 0 003.248-3.249.625.625 0 00-.625-.625h-5.22V6.763c0-.338.275-.612.613-.612h16.89c.337 0 .612.274.612.612v14.903z" fill="#2BA860"/><path d="M27.071 13.456a.625.625 0 00-.884 0l-2.677 2.677-.976-.977a.625.625 0 00-.884 0l-3.45 3.451-.965-.964a.625.625 0 00-.884 0l-1.792 1.793a.625.625 0 00.883.884l1.351-1.35.964.963c.244.244.64.244.884 0l3.45-3.45.977.976c.244.244.64.244.884 0l3.12-3.12a.625.625 0 000-.883z" fill="#2BA860"/></svg>