<svg width="32" height="32" fill="none" xmlns="http://www.w3.org/2000/svg"><path d="M31.817 5.87L26.129.183A.625.625 0 0025.687 0H7.125A1.877 1.877 0 005.25 1.875v1.192C2.18 4.27 0 7.262 0 10.755c0 .345.28.625.625.625h7.63c.346 0 .626-.28.626-.625v-7.63a.625.625 0 00-.625-.625c-.603 0-1.19.065-1.756.189v-.814c0-.345.28-.625.625-.625h17.938v3.813c0 1.033.84 1.875 1.875 1.875h3.812v23.187c0 .345-.28.625-.625.625h-23a.626.626 0 01-.625-.625v-5.354a.625.625 0 00-1.25 0v5.354c0 1.034.841 1.875 1.875 1.875h23A1.877 1.877 0 0032 30.125V6.312a.625.625 0 00-.183-.442zM7.63 3.778v6.353H1.278A7.017 7.017 0 017.63 3.778zm19.306 1.91a.626.626 0 01-.625-.625v-2.93l3.555 3.554h-2.93z" fill="#2BA860"/><path d="M6.317 22.058a.63.63 0 00-.442-.183.63.63 0 00-.625.625.63.63 0 00.625.625.63.63 0 00.625-.625.63.63 0 00-.183-.442zm4.177-17.319a.625.625 0 00-.625.625v7.005H2.863a.625.625 0 00-.625.625c0 4.553 3.704 8.256 8.256 8.256s8.256-3.703 8.256-8.256c0-4.552-3.704-8.255-8.256-8.255zm.625 1.277a6.974 6.974 0 013.865 1.605l-3.865 3.864V6.016zM10.494 20c-3.652 0-6.66-2.81-6.978-6.38h6.978c.172 0 .329-.07.442-.183l4.932-4.932a6.974 6.974 0 011.632 4.49A7.014 7.014 0 0110.494 20zm16.886-.275a1.877 1.877 0 00-1.727 2.606l-3.601 3.6a1.863 1.863 0 00-1.62-.008l-2.39-2.39a1.877 1.877 0 00-1.746-2.557 1.877 1.877 0 00-1.703 2.66L12.3 25.928a1.877 1.877 0 00-2.681 1.693c0 1.033.84 1.874 1.875 1.874a1.877 1.877 0 001.69-2.684l2.281-2.281a1.862 1.862 0 001.756-.051l2.324 2.323a1.877 1.877 0 001.688 2.69 1.877 1.877 0 001.697-2.671l3.567-3.568a1.877 1.877 0 002.757-1.654 1.877 1.877 0 00-1.875-1.875zm-15.886 8.521a.626.626 0 010-1.25.62.62 0 01.432.175l.007.008.01.008a.626.626 0 01-.449 1.059zm4.802-4.77a.626.626 0 110-1.252.626.626 0 010 1.251zm4.937 4.768a.626.626 0 11.002-1.252.626.626 0 01-.002 1.252zm6.146-6.019a.626.626 0 11.002-1.251.626.626 0 01-.002 1.251zm-3.123-7.537h-3.299a.625.625 0 000 1.25h3.3a.625.625 0 000-1.25zm3.287.182a.63.63 0 00-.442-.182.63.63 0 00-.625.624.629.629 0 00.625.626.63.63 0 00.625-.626.63.63 0 00-.183-.441zm1.049-6.182h-7.635a.625.625 0 000 1.25h7.635a.625.625 0 000-1.25zm0 3h-7.635a.625.625 0 000 1.25h7.635a.625.625 0 000-1.25z" fill="#2BA860"/></svg>