<svg width="32" height="32" fill="none" xmlns="http://www.w3.org/2000/svg"><g clip-path="url(#clip0)" fill="#2BA860"><path d="M2.529 19.584a.623.623 0 00.884 0l9.46-9.46 5.727 5.727a.625.625 0 00.884 0l3.321-3.322a.625.625 0 10-.883-.883l-2.88 2.88-5.728-5.728a.626.626 0 00-.884 0l-9.46 9.46-1.461-1.462L12.873 5.433 18.6 11.16a.625.625 0 00.884 0l7.547-7.548a.625.625 0 000-.884l-.23-.23 3.69-.989-.989 3.69-.125-.125a.625.625 0 00-.884 0L25.457 8.11a.625.625 0 00.884.884L28.936 6.4l.448.448a.625.625 0 001.046-.28L31.979.787a.625.625 0 00-.766-.766l-5.78 1.55a.625.625 0 00-.281 1.045l.554.554-6.664 6.664-5.728-5.727a.625.625 0 00-.883 0L.183 16.354a.625.625 0 000 .884l2.346 2.346z"/><path d="M31.375 30.75h-.625V11.854a.625.625 0 00-.625-.625h-3.5a.625.625 0 00-.625.625V30.75h-1.438V19.312a.625.625 0 00-.625-.625h-3.5a.625.625 0 00-.625.625V30.75h-1.437v-8.125A.625.625 0 0017.75 22h-3.5a.625.625 0 00-.625.625v8.125h-1.438V19.312a.625.625 0 00-.624-.625h-3.5a.625.625 0 00-.626.625V30.75H6v-5.73a.625.625 0 00-.625-.624h-3.5a.625.625 0 00-.625.625v5.729H.625a.625.625 0 000 1.25h30.75a.625.625 0 100-1.25zm-28.875 0v-5.104h2.25v5.104H2.5zm6.187 0V19.937h2.25V30.75h-2.25zm6.188 0v-7.5h2.25v7.5h-2.25zm6.188 0V19.937h2.25V30.75h-2.25zm6.187 0V12.48h2.25v18.27h-2.25zM23.69 9.877a.628.628 0 00.442 1.067.627.627 0 00.624-.625.63.63 0 00-.625-.625.63.63 0 00-.442.183z"/></g><defs><clipPath id="clip0"><path d="M0 0h32v32H0V0z" fill="#fff"/></clipPath></defs></svg>