<svg width="32" height="32" fill="none" xmlns="http://www.w3.org/2000/svg"><path d="M3.814 15.402a.625.625 0 100-1.25.625.625 0 000 1.25zm2.758 0a.625.625 0 100-1.25.625.625 0 000 1.25zm2.833 0a.625.625 0 100-1.25.625.625 0 000 1.25zm10.762-.354a.625.625 0 100-1.25.625.625 0 000 1.25zm5.84-2.546a.625.625 0 100-1.25.625.625 0 000 1.25zm2.758 0a.625.625 0 100-1.25.625.625 0 000 1.25zM3.814 27.046a.625.625 0 100-1.25.625.625 0 000 1.25zm2.758 0a.625.625 0 100-1.25.625.625 0 000 1.25zM27.385 4.048a.625.625 0 100-1.25.625.625 0 000 1.25z" fill="#2BA860"/><path d="M31.375 8.397h-7.98a.625.625 0 00-.625.625v7.33H11.293a.625.625 0 00-.625.624v9.684c0 .345.28.625.625.625h8.249v3.023H1.25V1.692h18.292v10.186a.625.625 0 001.25 0V1.068a.625.625 0 00-.625-.626H.625A.625.625 0 000 1.067v29.866c0 .345.28.625.625.625h19.542c.345 0 .625-.28.625-.625v-3.648h7.075c.345 0 .625-.28.625-.625v-6.05h2.883c.345 0 .625-.28.625-.624V9.022a.625.625 0 00-.625-.625zM25.628 17.6l-6.048 3.495-6.048-3.495h12.096zm1.614 8.434H11.918v-7.923l7.35 4.247a.624.624 0 00.624 0l7.35-4.247v7.923zm3.508-6.674h-2.258v-2.385a.625.625 0 00-.625-.625H24.02V9.647h6.73v9.714z" fill="#2BA860"/><path d="M5.595 7.176A2.667 2.667 0 002.93 9.839a2.667 2.667 0 002.664 2.664 2.667 2.667 0 002.663-2.664 2.667 2.667 0 00-2.663-2.663zm0 4.077c-.78 0-1.414-.634-1.414-1.414a1.414 1.414 0 111.414 1.414zM31.375.442h-7.98a.625.625 0 00-.625.625V5.78c0 .345.28.625.625.625h7.98c.345 0 .625-.28.625-.625V1.067a.625.625 0 00-.625-.625zm-.625 4.713h-6.73V1.692h6.73v3.463zm-13.843-.838H3.486a.625.625 0 000 1.25h13.42a.625.625 0 100-1.25z" fill="#2BA860"/></svg>