<svg width="32" height="32" fill="none" xmlns="http://www.w3.org/2000/svg"><path d="M15.944 4.066a.63.63 0 00.63-.63V.63a.63.63 0 10-1.26 0v2.808c0 .347.282.63.63.63zM31.33 21.624l-1.111-1.109a2.087 2.087 0 00-1.485-.612c-.36 0-.704.089-1.01.256l-2.095-2.092.102-.102c.85-.852.85-2.236 0-3.085a2.16 2.16 0 00-1.096-.593 2.192 2.192 0 00-.551-2.154 2.162 2.162 0 00-1.096-.593 2.192 2.192 0 00-.552-2.155 2.17 2.17 0 00-1.095-.591 2.188 2.188 0 00-.55-2.157 2.185 2.185 0 00-1.778-.623l-4.152-.786c-.633-.12-1.424-.2-1.923.256a1.134 1.134 0 00-.096.098 2.189 2.189 0 00-2.296.505c-.411.41-.638.959-.638 1.543 0 .21.03.416.087.613a2.158 2.158 0 00-1.094.59 2.169 2.169 0 00-.64 1.542c0 .211.03.418.087.614a2.162 2.162 0 00-1.095.591c-.412.412-.639.96-.639 1.544 0 .447.134.873.381 1.233a2.185 2.185 0 00-.838 3.608l.102.102-2.095 2.092a2.104 2.104 0 00-2.381.413L.67 21.68a2.084 2.084 0 00-.614 1.485c0 .562.218 1.089.614 1.484l1.389 1.387a.63.63 0 00.89-.89l-1.39-1.387a.833.833 0 01-.244-.594c0-.226.087-.437.244-.594l1.113-1.11a.843.843 0 011.027-.125.635.635 0 00.26.222l6.38 6.372a.627.627 0 00.304.306c.135.153.21.348.21.556a.833.833 0 01-.245.594l-1.112 1.11a.845.845 0 01-1.19 0L6.918 29.11a.63.63 0 10-.89.89l1.39 1.39c.408.407.945.61 1.483.61.537 0 1.075-.203 1.484-.61l1.113-1.112c.395-.395.613-.922.613-1.484 0-.401-.111-.785-.319-1.115l2.359-2.356.007-.007c.27-.28 1.023-.227 1.75-.177.516.036 1.093.076 1.656.011l2.582 2.58a2.09 2.09 0 00-.256 1.008c0 .562.218 1.089.613 1.484l1.113 1.11a2.08 2.08 0 001.484.613c.562 0 1.089-.217 1.484-.612l6.747-6.738c.396-.396.614-.923.614-1.485s-.218-1.09-.615-1.485zM14.627 6.464l2.73.517-1.634 1.634c-.253-.121-.6-.348-.98-.712-.52-.497-.892-1.072-.926-1.43v-.001a.56.56 0 01-.003-.062c.082-.02.301-.042.813.055zm-3.192.514a.929.929 0 011.175-.111c.204.856.935 1.632 1.263 1.946.244.233 1.025.932 1.814 1.124a.918.918 0 01.164.527.916.916 0 01-.922.922.917.917 0 01-.655-.27l-2.838-2.833a.915.915 0 01-.269-.653c0-.248.095-.48.268-.652zM9.791 9.725a.916.916 0 01.653-.27.92.92 0 01.655.27l2.285 2.282c.36.36.36.947.002 1.306a.922.922 0 01-.656.269.922.922 0 01-.655-.268l-1.734-1.734-.008-.008-.543-.542a.916.916 0 01-.27-.654c0-.247.096-.478.27-.651zM8.143 12.47a.919.919 0 01.654-.269.92.92 0 01.65.264l1.739 1.739a.913.913 0 01.269.652.918.918 0 01-.923.92.922.922 0 01-.655-.268l-.63-.63h-.001l-1.103-1.102a.917.917 0 01-.27-.653c0-.248.096-.48.27-.653zm-1.096 3.3a.92.92 0 01.655-.27.92.92 0 01.654.27l.632.63a.913.913 0 01.269.652.917.917 0 01-.924.922.917.917 0 01-.655-.27l-.079-.079-.003-.003-.003-.003-.546-.544a.924.924 0 010-1.305zm12.827 7.153a.63.63 0 00-.89 0l-.56.56c-.532.531-1.497.464-2.43.4-1.012-.07-2.059-.143-2.736.552l-2.319 2.316-5.797-5.79 2.051-2.047c.34.207.73.319 1.14.319.585 0 1.134-.227 1.543-.637.413-.411.64-.96.64-1.544v-.016h.016c.584 0 1.132-.226 1.542-.636.413-.41.64-.959.64-1.543v-.017h.016a2.175 2.175 0 002.182-2.195h.017c.585 0 1.133-.227 1.544-.638.411-.41.637-.958.637-1.543 0-.409-.11-.8-.318-1.138L18.59 7.53a.923.923 0 01.529-.26.926.926 0 01.782.258c.36.361.36.948.001 1.307l-.548.545-.005.006-.631.63a.63.63 0 10.89.89l.55-.55.083-.082a.927.927 0 011.306.003.913.913 0 01.27.652.913.913 0 01-.271.653l-.551.552-.631.628a.63.63 0 10.888.892l.634-.631a.916.916 0 01.653-.27.918.918 0 01.924.923.913.913 0 01-.27.652l-1.098 1.1a.63.63 0 00.89.889l.539-.538.009-.009a.916.916 0 01.653-.269.924.924 0 01.654 1.574l-.546.547h-.001v.001l-.87.868a.63.63 0 10.89.89l.425-.424 2.036 2.034-5.797 5.79-2.077-2.075c.145-.093.283-.202.414-.332l.56-.56a.63.63 0 000-.89zm10.567.78l-6.746 6.738a.835.835 0 01-.595.245.836.836 0 01-.595-.245l-1.112-1.11a.832.832 0 01-.245-.594.83.83 0 01.245-.593l6.746-6.738a.835.835 0 01.595-.245c.226 0 .437.087.595.245l1.112 1.109a.833.833 0 01.245.594.832.832 0 01-.245.594zM7.586 3.536a.627.627 0 00.89-.001.63.63 0 00-.001-.89L6.181.355a.63.63 0 10-.889.891l2.294 2.29zm16.272.184c.16 0 .321-.062.444-.185l2.292-2.289a.63.63 0 10-.89-.89l-2.291 2.289a.63.63 0 00.445 1.075z" fill="#2BA860"/><path d="M3.926 27.075a.63.63 0 00.008.89l.002.002a.625.625 0 00.889-.008.63.63 0 00-.899-.884zm17.487-5.058a.63.63 0 10-.283-1.192l-.004.002a.628.628 0 00.287 1.19z" fill="#2BA860"/></svg>