<svg width="32" height="32" fill="none" xmlns="http://www.w3.org/2000/svg"><g clip-path="url(#clip0)" fill="#2BA860"><path d="M19.375 12.25a5.506 5.506 0 00-5.5 5.5c0 3.033 2.468 5.5 5.5 5.5 3.033 0 5.5-2.467 5.5-5.5s-2.467-5.5-5.5-5.5zm0 9.75a4.255 4.255 0 01-4.25-4.25 4.255 4.255 0 014.25-4.25 4.255 4.255 0 014.25 4.25 4.255 4.255 0 01-4.25 4.25z"/><path d="M19.375 14.938a.625.625 0 100 1.25c.862 0 1.563.7 1.563 1.562a.625.625 0 101.25 0 2.815 2.815 0 00-2.813-2.812zM3.852 6.463a.625.625 0 00-1.11.574l1.683 3.25a.625.625 0 001.118-.017l1.019-2.12 1.106 2.137a.626.626 0 00.555.338h.01a.626.626 0 00.554-.354l1.56-3.25a.625.625 0 00-1.126-.542L8.202 8.6 7.096 6.463a.625.625 0 00-1.118.017L4.957 8.6 3.853 6.463zM7.874 3a.629.629 0 00.442-1.067.63.63 0 00-.442-.183.63.63 0 00-.625.625.63.63 0 00.625.625z"/><path d="M32 12.5V4.25c0-1.378-1.122-2.5-2.5-2.5h-19a.625.625 0 000 1.25h19c.69 0 1.25.56 1.25 1.25v8.25c0 .69-.56 1.25-1.25 1.25h-3a.621.621 0 00-.053.003 8.168 8.168 0 00-4.393-3.674l.926-1.929 1.106 2.137a.625.625 0 00.555.338h.01a.625.625 0 00.554-.354l1.56-3.25a.625.625 0 10-1.126-.542L24.62 8.6l-1.107-2.137a.624.624 0 00-1.118.017L21.377 8.6l-1.106-2.137a.625.625 0 00-1.11.574l1.383 2.672a8.16 8.16 0 00-3.386.224l1.399-2.912a.625.625 0 10-1.127-.542L16.412 8.6l-1.107-2.137a.627.627 0 00-1.118.016L13.169 8.6l-1.107-2.137a.625.625 0 00-1.11.574l1.682 3.25a.625.625 0 001.118-.017l1.02-2.12 1.105 2.137a.614.614 0 00.066.1 8.18 8.18 0 00-3.638 3.363H2.5c-.69 0-1.25-.56-1.25-1.25V4.25C1.25 3.56 1.81 3 2.5 3h2.562a.625.625 0 100-1.25H2.5A2.503 2.503 0 000 4.25v8.25C0 13.879 1.122 15 2.5 15h9.23a8.09 8.09 0 00-.48 2.75c0 4.48 3.645 8.125 8.125 8.125a8.075 8.075 0 004.047-1.081l4.96 4.96c.413.413.956.62 1.499.62a2.11 2.11 0 001.498-.62 2.122 2.122 0 000-2.997l-1.949-1.949a.625.625 0 00-.884.884l1.95 1.95a.87.87 0 01-1.23 1.23l-4.796-4.798A8.113 8.113 0 0027.02 15h2.48c1.379 0 2.5-1.122 2.5-2.5zM19.375 24.625A6.883 6.883 0 0112.5 17.75a6.883 6.883 0 016.875-6.875 6.883 6.883 0 016.875 6.875 6.883 6.883 0 01-6.875 6.875z"/><path d="M27.064 23.326a.63.63 0 00-.183.442.63.63 0 00.183.441.631.631 0 00.442.184.627.627 0 00.442-1.067.629.629 0 00-.884 0z"/></g><defs><clipPath id="clip0"><path d="M0 0h32v32H0V0z" fill="#fff"/></clipPath></defs></svg>