<svg width="32" height="32" fill="none" xmlns="http://www.w3.org/2000/svg"><path d="M29.777 13.777a2.226 2.226 0 00-2.133 1.598h-3.038a8.592 8.592 0 00-2.082-5.015l2.151-2.151a2.21 2.21 0 001.067.272c.594 0 1.152-.231 1.572-.651.42-.42.65-.978.65-1.572 0-.594-.23-1.152-.65-1.572a2.208 2.208 0 00-1.572-.65c-.594 0-1.152.23-1.572.65-.42.42-.65.978-.65 1.572 0 .38.094.744.271 1.067l-2.15 2.15a8.592 8.592 0 00-5.016-2.08v-3.04a2.226 2.226 0 001.598-2.132A2.225 2.225 0 0016 0a2.225 2.225 0 00-2.223 2.223c0 1.009.676 1.862 1.598 2.133v3.038a8.593 8.593 0 00-5.015 2.082L8.209 7.325a2.21 2.21 0 00.272-1.067c0-.594-.231-1.152-.651-1.572a2.209 2.209 0 00-1.572-.65c-.594 0-1.152.23-1.572.65-.42.42-.65.978-.65 1.572 0 .594.23 1.152.65 1.572.42.42.978.65 1.572.65.38 0 .744-.094 1.067-.271l2.15 2.15a8.593 8.593 0 00-2.08 5.016h-3.04a2.226 2.226 0 00-2.132-1.598A2.225 2.225 0 000 16c0 1.226.997 2.223 2.223 2.223a2.226 2.226 0 002.133-1.598h3.038a8.593 8.593 0 002.082 5.015l-2.152 2.152a2.226 2.226 0 00-2.638.378 2.226 2.226 0 000 3.144c.42.42.978.65 1.572.65.594 0 1.152-.23 1.572-.65a2.227 2.227 0 00.378-2.638l2.152-2.152a8.592 8.592 0 005.015 2.081v3.04a2.226 2.226 0 00-1.598 2.132c0 1.226.997 2.223 2.223 2.223a2.225 2.225 0 002.223-2.223 2.226 2.226 0 00-1.598-2.133v-3.038a8.585 8.585 0 004.693-1.816.623.623 0 00.101-.081c.075-.06.149-.122.221-.185l2.152 2.152a2.226 2.226 0 00.378 2.638c.42.42.978.65 1.572.65.594 0 1.152-.23 1.572-.65a2.226 2.226 0 000-3.144 2.226 2.226 0 00-2.638-.378l-2.152-2.152a8.593 8.593 0 002.081-5.015h3.04a2.226 2.226 0 002.132 1.598A2.225 2.225 0 0032 16a2.225 2.225 0 00-2.223-2.223zM25.054 5.57a.97.97 0 011.376 0 .974.974 0 01-1.376 1.376.967.967 0 01-.285-.688c0-.26.101-.504.285-.688zM6.946 6.946A.974.974 0 015.57 5.57a.97.97 0 011.376 0c.38.38.38.997 0 1.376zM2.223 16.973a.974.974 0 010-1.946.974.974 0 010 1.946zm4.723 9.457a.966.966 0 01-.688.285.974.974 0 11.688-1.66c.38.378.38.996 0 1.375zm18.108-1.376a.97.97 0 011.376 0 .974.974 0 01-1.376 1.376.974.974 0 010-1.376zM15.027 2.223a.974.974 0 011.946 0 .974.974 0 01-1.946 0zm1.946 27.554a.974.974 0 01-1.946 0 .974.974 0 011.946 0zm4.299-8.62a5.611 5.611 0 00-1.664-2.162 5.75 5.75 0 00-1.622-.899c.53-.54.858-1.28.858-2.096a3.001 3.001 0 00-2.998-2.998A3.001 3.001 0 0012.848 16c0 .858.363 1.633.943 2.18a5.737 5.737 0 00-1.56.946.625.625 0 10.812.951A4.556 4.556 0 0116 18.997c1.954 0 3.686 1.25 4.264 3.021A7.338 7.338 0 0116 23.378c-4.068 0-7.378-3.31-7.378-7.378S11.932 8.622 16 8.622s7.378 3.31 7.378 7.378a7.353 7.353 0 01-2.106 5.157zM17.594 16a1.75 1.75 0 01-1.748 1.748A1.75 1.75 0 0114.098 16a1.75 1.75 0 011.748-1.748A1.75 1.75 0 0117.594 16zm12.183.973a.974.974 0 010-1.946.974.974 0 010 1.946z" fill="#2BA860"/><path d="M11.594 21.356a.625.625 0 100-1.25.625.625 0 000 1.25z" fill="#2BA860"/></svg>