<svg width="32" height="32" fill="none" xmlns="http://www.w3.org/2000/svg"><path d="M31.77 12.45l-3.443-2.815V4.414A1.916 1.916 0 0026.414 2.5h-5.039a.625.625 0 100 1.25h5.039c.365 0 .663.298.663.664v11.093l-8.202 6.236-8.202-6.236V4.414c0-.366.297-.664.663-.664h5.039a.625.625 0 100-1.25h-5.039a1.916 1.916 0 00-1.913 1.914v5.221L5.979 12.45a.625.625 0 00-.229.484v6.939H2.937a.625.625 0 100 1.25H5.75v6.463c0 1.056.858 1.914 1.914 1.914h22.422A1.916 1.916 0 0032 27.586V12.934a.625.625 0 00-.23-.484zm-1.02 14.852l-7.395-7.395 7.395-5.622v13.017zM28.327 11.25l2.096 1.713-2.096 1.593V11.25zm-9.452 11.903a.625.625 0 00.378-.127l3.098-2.355 7.579 7.579H7.82l7.58-7.58 3.097 2.356a.624.624 0 00.378.127zM7 14.285l7.395 5.622L7 27.302V14.285zm2.423.271l-2.096-1.593 2.096-1.713v3.306z" fill="#2BA860"/><path d="M4 23.873H.625a.625.625 0 100 1.25H4a.625.625 0 000-1.25zM18.875 3.75a.63.63 0 00.442-.183.63.63 0 00.183-.442.63.63 0 00-.183-.442.63.63 0 00-.442-.183.63.63 0 00-.442.183.63.63 0 00-.183.442.63.63 0 00.183.442.63.63 0 00.442.183zm-5.071 7.812a5.077 5.077 0 005.071 5.071 5.077 5.077 0 005.07-5.071 5.076 5.076 0 00-5.07-5.07 5.076 5.076 0 00-5.07 5.07zm8.892 0a3.825 3.825 0 01-3.821 3.821 3.825 3.825 0 01-3.82-3.821 3.825 3.825 0 013.82-3.82 3.825 3.825 0 013.82 3.82z" fill="#2BA860"/><path d="M17.901 10.985a.625.625 0 10-.883.884l1.103 1.103a.623.623 0 00.884 0l1.936-1.936a.625.625 0 00-.884-.884l-1.494 1.494-.662-.661z" fill="#2BA860"/></svg>