<svg width="32" height="32" fill="none" xmlns="http://www.w3.org/2000/svg"><path d="M16 18.951a6.099 6.099 0 00-6.092 6.092 6.083 6.083 0 002.345 4.8A6.062 6.062 0 0016 31.133a6.062 6.062 0 003.832-1.36 6.083 6.083 0 002.26-4.731A6.099 6.099 0 0016 18.95zm0 10.933a4.813 4.813 0 01-2.675-.808c.411-1.056 1.477-1.788 2.675-1.788 1.197 0 2.263.732 2.674 1.788a4.813 4.813 0 01-2.674.808zm-1.101-4.841a.997.997 0 011.991 0 .997.997 0 01-1.991 0zm4.754 3.172a4.108 4.108 0 00-1.967-1.82c.285-.376.454-.845.454-1.352a2.248 2.248 0 00-2.245-2.246 2.248 2.248 0 00-2.246 2.246c0 .54.192 1.037.511 1.425a4.1 4.1 0 00-1.813 1.747 4.82 4.82 0 01-1.189-3.172A4.847 4.847 0 0116 20.2a4.847 4.847 0 014.841 4.842 4.82 4.82 0 01-1.188 3.172zM6.092.865A6.099 6.099 0 000 6.957a6.083 6.083 0 002.344 4.8 6.061 6.061 0 003.748 1.292 6.062 6.062 0 003.831-1.36 6.083 6.083 0 002.26-4.732A6.099 6.099 0 006.093.865zm0 10.934a4.814 4.814 0 01-2.675-.808c.411-1.056 1.477-1.788 2.675-1.788 1.197 0 2.263.732 2.674 1.788a4.813 4.813 0 01-2.674.808zM4.99 6.957a.997.997 0 011.991 0 .997.997 0 01-1.991 0zm4.754 3.173a4.108 4.108 0 00-1.968-1.82c.286-.376.455-.845.455-1.353a2.248 2.248 0 00-2.246-2.246A2.248 2.248 0 003.74 6.957c0 .54.192 1.037.511 1.425A4.1 4.1 0 002.44 10.13a4.82 4.82 0 01-1.19-3.173 4.847 4.847 0 014.842-4.841 4.847 4.847 0 014.842 4.841 4.82 4.82 0 01-1.19 3.173zM25.908.865a6.099 6.099 0 00-6.092 6.092 6.083 6.083 0 002.344 4.8 6.062 6.062 0 003.748 1.292 6.062 6.062 0 003.831-1.36A6.082 6.082 0 0032 6.957 6.099 6.099 0 0025.909.865zm0 10.934a4.813 4.813 0 01-2.675-.808c.411-1.056 1.477-1.788 2.675-1.788 1.197 0 2.263.732 2.674 1.788a4.813 4.813 0 01-2.674.808zm-1.101-4.842a.997.997 0 011.991 0 .997.997 0 01-1.991 0zm4.754 3.173a4.108 4.108 0 00-1.968-1.82c.286-.376.455-.845.455-1.353a2.248 2.248 0 00-2.245-2.246 2.248 2.248 0 00-2.246 2.246c0 .54.192 1.037.511 1.425a4.1 4.1 0 00-1.813 1.748 4.82 4.82 0 01-1.189-3.173 4.847 4.847 0 014.842-4.842 4.847 4.847 0 014.841 4.842 4.82 4.82 0 01-1.188 3.173zM8.811 22.215l-.007-.007a.625.625 0 00-.813.95c.003.002.005.005.008.006a.622.622 0 00.88-.073.625.625 0 00-.068-.876zm-1.22-1.254l-.007-.01a.626.626 0 00-.957.805l.001.002a.624.624 0 00.88.083.625.625 0 00.083-.88zm-1.012-1.433l-.008-.012a.626.626 0 00-1.071.643v.001a.625.625 0 101.079-.632zm-1.297-3.259a.625.625 0 10-1.221.263l.002.013a.626.626 0 001.22-.276zm.518 1.68l-.004-.009a.625.625 0 00-1.16.467l.002.003a.625.625 0 101.162-.461zm18.277 4.333a.625.625 0 00-.888-.067.625.625 0 00.813.95l.007-.007a.625.625 0 00.068-.876zm2.939-4.688a.625.625 0 00-.817.355.622.622 0 00.58.852.63.63 0 00.583-.394.625.625 0 00-.346-.813zm-1.72 3.283a.625.625 0 00-.88.075l-.008.01a.622.622 0 00.482 1.02.625.625 0 00.407-1.104zm2.167-5.085a.626.626 0 00-.745.475.625.625 0 101.219.278l.003-.013a.624.624 0 00-.477-.74zm-1.176 3.512a.625.625 0 00-.865.224.626.626 0 001.078.634.625.625 0 00-.213-.858zm1.336-5.363a.625.625 0 00-.659.59v.002a.624.624 0 00.625.658.627.627 0 00.035-1.25zM19.889 1.995l-.006-.002a.625.625 0 10-.384 1.19l.005.001a.625.625 0 10.385-1.189zm-1.921-.451l-.017-.003a.627.627 0 00-.711.527.623.623 0 00.628.718.625.625 0 00.1-1.242zm-1.975-.141h-.016a.626.626 0 00-.617.634.624.624 0 00.623.616h.01a.625.625 0 000-1.25zm-3.112 1.012a.625.625 0 00-.78-.417L12.094 2a.623.623 0 00.187 1.221.628.628 0 00.601-.807zm1.856-.323a.624.624 0 00-.715-.517l.09.618-.091-.618a.625.625 0 00.184 1.236l.014-.002a.626.626 0 00.518-.717zM5.022 14.395a.625.625 0 10-1.222.263l.003.013a.626.626 0 001.219-.276z" fill="#2BA860"/></svg>